<svg width="66" height="72" viewBox="0 0 66 72" fill="none" xmlns="http://www.w3.org/2000/svg">
<g filter="url(#filter0_d_69_613)">
<rect x="2" y="1" width="62" height="68" rx="8" fill="#3F5BF6"/>
<rect x="2.5" y="1.5" width="61" height="67" rx="7.5" stroke="#3F5BF6"/>
<path d="M29.012 16.76V18.314H25.918V26H23.986V18.314H20.878V16.76H29.012ZM31.942 26.14C31.4754 26.14 31.0554 26.056 30.682 25.888C30.3087 25.72 30.01 25.454 29.786 25.09C29.5714 24.7167 29.464 24.236 29.464 23.648V19H31.382V23.186C31.382 23.7273 31.494 24.1053 31.718 24.32C31.942 24.5253 32.264 24.628 32.684 24.628C32.88 24.628 33.0714 24.5953 33.258 24.53C33.4447 24.4553 33.608 24.3433 33.748 24.194C33.8974 24.0447 34.014 23.8533 34.098 23.62C34.182 23.3773 34.224 23.0927 34.224 22.766V19H36.142V26H34.434L34.364 24.782C34.1307 25.2487 33.8087 25.594 33.398 25.818C32.9967 26.0327 32.5114 26.14 31.942 26.14ZM41.4083 26.14C40.671 26.14 40.027 25.9953 39.4763 25.706C38.935 25.4167 38.515 25.0013 38.2163 24.46C37.9177 23.9187 37.7683 23.2653 37.7683 22.5C37.7683 21.7347 37.9177 21.0813 38.2163 20.54C38.515 19.9987 38.9303 19.5833 39.4623 19.294C40.0037 19.0047 40.6197 18.86 41.3103 18.86C42.0197 18.86 42.6217 19.0047 43.1163 19.294C43.611 19.574 43.989 19.9613 44.2503 20.456C44.5117 20.9413 44.6423 21.4967 44.6423 22.122C44.6423 22.3087 44.6377 22.486 44.6283 22.654C44.619 22.822 44.605 22.9713 44.5863 23.102H39.0003V21.772H43.7463L42.8223 22.108C42.8223 21.52 42.687 21.0673 42.4163 20.75C42.155 20.4327 41.7817 20.274 41.2963 20.274C40.9417 20.274 40.6337 20.358 40.3723 20.526C40.1203 20.694 39.929 20.946 39.7983 21.282C39.6677 21.6087 39.6023 22.024 39.6023 22.528C39.6023 23.0227 39.6723 23.4333 39.8123 23.76C39.9617 24.0773 40.167 24.3153 40.4283 24.474C40.699 24.6327 41.021 24.712 41.3943 24.712C41.805 24.712 42.1363 24.6327 42.3883 24.474C42.6403 24.3153 42.8363 24.096 42.9763 23.816L44.5023 24.404C44.353 24.768 44.1243 25.0807 43.8163 25.342C43.5177 25.6033 43.1583 25.804 42.7383 25.944C42.3277 26.0747 41.8843 26.14 41.4083 26.14Z" fill="white"/>
<path d="M29.41 54V52.698C30.25 52.1287 30.9593 51.6153 31.538 51.158C32.126 50.6913 32.5973 50.262 32.952 49.87C33.316 49.4687 33.5773 49.0907 33.736 48.736C33.904 48.3813 33.988 48.0267 33.988 47.672C33.988 47.2427 33.8573 46.8927 33.596 46.622C33.3347 46.342 32.966 46.202 32.49 46.202C31.9673 46.202 31.5567 46.3793 31.258 46.734C30.9687 47.0887 30.81 47.5927 30.782 48.246L29.116 47.616C29.1627 46.9813 29.3307 46.4447 29.62 46.006C29.9187 45.558 30.32 45.2173 30.824 44.984C31.3373 44.7413 31.9253 44.62 32.588 44.62C33.1573 44.62 33.6473 44.6993 34.058 44.858C34.478 45.0167 34.8233 45.236 35.094 45.516C35.374 45.7867 35.584 46.0993 35.724 46.454C35.864 46.8087 35.934 47.1773 35.934 47.56C35.934 48.1573 35.7847 48.722 35.486 49.254C35.1967 49.786 34.7487 50.3133 34.142 50.836C33.5353 51.3587 32.7653 51.9093 31.832 52.488V52.502C31.972 52.4927 32.14 52.4833 32.336 52.474C32.5413 52.4647 32.7513 52.46 32.966 52.46C33.1807 52.4507 33.3673 52.446 33.526 52.446H36.074V54H29.41Z" fill="white"/>
</g>
<defs>
<filter id="filter0_d_69_613" x="0" y="0" width="66" height="72" filterUnits="userSpaceOnUse" color-interpolation-filters="sRGB">
<feFlood flood-opacity="0" result="BackgroundImageFix"/>
<feColorMatrix in="SourceAlpha" type="matrix" values="0 0 0 0 0 0 0 0 0 0 0 0 0 0 0 0 0 0 127 0" result="hardAlpha"/>
<feOffset dy="1"/>
<feGaussianBlur stdDeviation="1"/>
<feColorMatrix type="matrix" values="0 0 0 0 0.0627451 0 0 0 0 0.0941176 0 0 0 0 0.156863 0 0 0 0.05 0"/>
<feBlend mode="normal" in2="BackgroundImageFix" result="effect1_dropShadow_69_613"/>
<feBlend mode="normal" in="SourceGraphic" in2="effect1_dropShadow_69_613" result="shape"/>
</filter>
</defs>
</svg>
